<svg width="34" height="35" viewBox="0 0 34 35" fill="none" xmlns="http://www.w3.org/2000/svg">
<path d="M3.22805 1.61402C3.22805 2.50484 2.50559 3.22755 1.61403 3.22755C0.72297 3.22755 0.00050354 2.50484 0.00050354 1.61402C0.00050354 0.72296 0.72297 7.62939e-06 1.61403 7.62939e-06C2.50559 7.62939e-06 3.22805 0.72296 3.22805 1.61402Z" fill="#BFBACF"/>
<path d="M10.9211 1.61403C10.9211 2.50485 10.1982 3.22756 9.30711 3.22756C8.41605 3.22756 7.69359 2.50485 7.69359 1.61403C7.69359 0.722962 8.41605 9.53674e-06 9.30711 9.53674e-06C10.1982 9.53674e-06 10.9211 0.722962 10.9211 1.61403Z" fill="#BFBACF"/>
<path d="M26.3071 1.61403C26.3071 2.50485 25.5847 3.22756 24.6931 3.22756C23.802 3.22756 23.0791 2.50485 23.0791 1.61403C23.0791 0.722962 23.802 9.53674e-06 24.6931 9.53674e-06C25.5847 9.53674e-06 26.3071 0.722962 26.3071 1.61403Z" fill="#BFBACF"/>
<path d="M34 1.61403C34 2.50485 33.278 3.22756 32.3864 3.22756C31.4954 3.22756 30.7724 2.50485 30.7724 1.61403C30.7724 0.722962 31.4954 9.53674e-06 32.3864 9.53674e-06C33.278 9.53674e-06 34 0.722962 34 1.61403Z" fill="#BFBACF"/>
<path d="M3.22777 9.36862C3.22777 10.2597 2.50531 10.9824 1.61376 10.9824C0.722695 10.9824 0.000228882 10.2597 0.000228882 9.36862C0.000228882 8.47756 0.722695 7.75461 1.61376 7.75461C2.50531 7.75436 3.22777 8.47731 3.22777 9.36862Z" fill="#BFBACF"/>
<path d="M10.9211 9.36862C10.9211 10.2597 10.1982 10.9824 9.30711 10.9824C8.41605 10.9824 7.69359 10.2597 7.69359 9.36862C7.69359 8.47756 8.41605 7.75461 9.30711 7.75461C10.1982 7.75436 10.9211 8.47731 10.9211 9.36862Z" fill="#BFBACF"/>
<path d="M34 9.36862C34 10.2597 33.278 10.9824 32.3864 10.9824C31.4954 10.9824 30.7724 10.2597 30.7724 9.36862C30.7724 8.47756 31.4954 7.75461 32.3864 7.75461C33.278 7.75436 34 8.47731 34 9.36862Z" fill="#BFBACF"/>
<path d="M3.22777 17.1232C3.22777 18.014 2.50531 18.7367 1.61376 18.7367C0.722695 18.7367 0.000228882 18.014 0.000228882 17.1232C0.000228882 16.2322 0.722695 15.5094 1.61376 15.5094C2.50531 15.5092 3.22777 16.2319 3.22777 17.1232Z" fill="#BFBACF"/>
<path d="M2.05637 24.8776H1.17141V32.6322H2.05637V24.8776Z" fill="black"/>
<path d="M9.74924 17.1232H8.86427V32.6322H9.74924V17.1232Z" fill="black"/>
<path d="M17.4429 1.61402H16.5579V32.6322H17.4429V1.61402Z" fill="black"/>
<path d="M25.1362 9.36837H24.2513V32.6319H25.1362V9.36837Z" fill="black"/>
<path d="M32.8291 17.1232H31.9446V32.6322H32.8291V17.1232Z" fill="black"/>
<path d="M15.3865 9.36862C15.3865 10.2597 16.1089 10.9824 17.0005 10.9824C17.8915 10.9824 18.614 10.2597 18.614 9.36862C18.614 8.47756 17.8915 7.75461 17.0005 7.75461C16.1089 7.75436 15.3865 8.47731 15.3865 9.36862Z" fill="black"/>
<path d="M7.69334 17.1232C7.69334 18.014 8.4158 18.7367 9.30687 18.7367C10.1979 18.7367 10.9209 18.014 10.9209 17.1232C10.9209 16.2322 10.1979 15.5094 9.30687 15.5094C8.4158 15.5092 7.69334 16.2319 7.69334 17.1232Z" fill="black"/>
<path d="M15.3865 17.1232C15.3865 18.014 16.1089 18.7367 17.0005 18.7367C17.8915 18.7367 18.614 18.014 18.614 17.1232C18.614 16.2322 17.8915 15.5094 17.0005 15.5094C16.1089 15.5092 15.3865 16.2319 15.3865 17.1232Z" fill="black"/>
<path d="M30.7722 17.1232C30.7722 18.014 31.4951 18.7367 32.3862 18.7367C33.2778 18.7367 33.9997 18.014 33.9997 17.1232C33.9997 16.2322 33.2778 15.5094 32.3862 15.5094C31.4951 15.5092 30.7722 16.2319 30.7722 17.1232Z" fill="black"/>
<path d="M-1.52588e-05 24.8776C-1.52588e-05 25.7686 0.722447 26.4916 1.61351 26.4916C2.50506 26.4916 3.22753 25.7686 3.22753 24.8776C3.22753 23.9865 2.50506 23.2641 1.61351 23.2641C0.722447 23.2641 -1.52588e-05 23.9865 -1.52588e-05 24.8776Z" fill="black"/>
<path d="M7.69334 24.8776C7.69334 25.7686 8.4158 26.4916 9.30687 26.4916C10.1979 26.4916 10.9209 25.7686 10.9209 24.8776C10.9209 23.9865 10.1979 23.2641 9.30687 23.2641C8.4158 23.2641 7.69334 23.9865 7.69334 24.8776Z" fill="#030303"/>
<path d="M15.3865 24.8776C15.3865 25.7686 16.1089 26.4916 17.0005 26.4916C17.8915 26.4916 18.614 25.7686 18.614 24.8776C18.614 23.9865 17.8915 23.2641 17.0005 23.2641C16.1089 23.2641 15.3865 23.9865 15.3865 24.8776Z" fill="black"/>
<path d="M23.0788 24.8776C23.0788 25.7686 23.8018 26.4916 24.6929 26.4916C25.5844 26.4916 26.3069 25.7686 26.3069 24.8776C26.3069 23.9865 25.5844 23.2641 24.6929 23.2641C23.8018 23.2641 23.0788 23.9865 23.0788 24.8776Z" fill="black"/>
<path d="M30.7722 24.8776C30.7722 25.7686 31.4951 26.4916 32.3862 26.4916C33.2778 26.4916 33.9997 25.7686 33.9997 24.8776C33.9997 23.9865 33.2778 23.2641 32.3862 23.2641C31.4951 23.2641 30.7722 23.9865 30.7722 24.8776Z" fill="black"/>
<path d="M-1.52588e-05 32.6322C-1.52588e-05 33.523 0.722447 34.246 1.61351 34.246C2.50506 34.246 3.22753 33.523 3.22753 32.6322C3.22753 31.7409 2.50506 31.0184 1.61351 31.0184C0.722447 31.0184 -1.52588e-05 31.7409 -1.52588e-05 32.6322Z" fill="black"/>
<path d="M7.69334 32.6322C7.69334 33.523 8.4158 34.246 9.30687 34.246C10.1979 34.246 10.9209 33.523 10.9209 32.6322C10.9209 31.7409 10.1979 31.0184 9.30687 31.0184C8.4158 31.0184 7.69334 31.7409 7.69334 32.6322Z" fill="black"/>
<path d="M15.3865 32.6322C15.3865 33.523 16.1089 34.246 17.0005 34.246C17.8915 34.246 18.614 33.523 18.614 32.6322C18.614 31.7409 17.8915 31.0184 17.0005 31.0184C16.1089 31.0184 15.3865 31.7409 15.3865 32.6322Z" fill="black"/>
<path d="M23.0788 32.6322C23.0788 33.523 23.8018 34.246 24.6929 34.246C25.5844 34.246 26.3069 33.523 26.3069 32.6322C26.3069 31.7409 25.5844 31.0184 24.6929 31.0184C23.8018 31.0184 23.0788 31.7409 23.0788 32.6322Z" fill="black"/>
<path d="M30.7722 32.6322C30.7722 33.523 31.4951 34.246 32.3862 34.246C33.2778 34.246 33.9997 33.523 33.9997 32.6322C33.9997 31.7409 33.2778 31.0184 32.3862 31.0184C31.4951 31.0184 30.7722 31.7409 30.7722 32.6322Z" fill="black"/>
<path d="M15.3865 1.61402C15.3865 2.50484 16.1089 3.22755 17.0005 3.22755C17.8915 3.22755 18.614 2.50484 18.614 1.61402C18.614 0.722952 17.8915 0 17.0005 0C16.1089 0 15.3865 0.722952 15.3865 1.61402Z" fill="black"/>
<path d="M23.0788 9.36862C23.0788 10.2597 23.8018 10.9824 24.6929 10.9824C25.5844 10.9824 26.3069 10.2597 26.3069 9.36862C26.3069 8.47756 25.5844 7.75461 24.6929 7.75461C23.8018 7.75436 23.0788 8.47731 23.0788 9.36862Z" fill="url(#paint0_linear_1_64)"/>
<path d="M23.0788 17.1232C23.0788 18.014 23.8018 18.7367 24.6929 18.7367C25.5844 18.7367 26.3069 18.014 26.3069 17.1232C26.3069 16.2322 25.5844 15.5094 24.6929 15.5094C23.8018 15.5092 23.0788 16.2319 23.0788 17.1232Z" fill="black"/>
<defs>
<linearGradient id="paint0_linear_1_64" x1="-0.584883" y1="28.5931" x2="32.6664" y2="3.30434" gradientUnits="userSpaceOnUse">
<stop/>
<stop offset="1" stop-color="#4A4A4A"/>
</linearGradient>
</defs>
</svg>
